PathFileType	4	(X/Y/Z)	C:/Users/CLatella/Desktop/xsens/test 22settembre2016/Meri Veloce/Meri-002_My MVN System.trc	
DataRate	CameraRate	NumFrames	NumMarkers	Units	OrigDataRate	OrigDataStartFrame	OrigNumFrames	
240.00	240.00	6	64	mm	240.00	374	597	
Frame#	Time	pHipOrigin			pRightASI			pLeftASI			pRightCSI			pLeftCSI			pRightIschialTub			pLeftIschialTub			pSacrum			pL5SpinalProcess			pL3SpinalProcess			pT12SpinalProcess			pPX			pIJ			pT4SpinalProcess			pT8SpinalProcess			pC7SpinalProcess			pTopOfHead			pRightAuricularis			pLeftAuricularis			pBackOfHead			pRightAcromion			pLeftAcromion			pRightArmLatEpicondyle			pRightArmMedEpicondyle			pLeftArmLatEpicondyle			pLeftArmMedEpicondyle			pRightUlnarStyloid			pRightRadialStyloid			pRightOlecranon			pLeftUlnarStyloid			pLeftRadialStyloid			pLeftOlecranon			pRightTopOfHand			pRightPinky			pRightBallHand			pLeftTopOfHand			pLeftPinky			pLeftBallHand			pRightGreaterTrochanter			pRightKneeLatEpicondyle			pRightKneeMedEpicondyle			pRightPatella			pLeftGreaterTrochanter			pLeftKneeLatEpicondyle			pLeftKneeMedEpicondyle			pLeftPatella			pRightLatMalleolus			pRightMedMalleolus			pRightTibialTub			pLeftLatMalleolus			pLeftMedMalleolus			pLeftTibialTub			pRightHeelFoot			pRightFirstMetatarsal			pRightFifthMetatarsal			pRightPivotFoot			pRightHeelCenter			pRightToe			pLeftHeelFoot			pLeftFirstMetatarsal			pLeftFifthMetatarsal			pLeftPivotFoot			pLeftHeelCenter			pLeftToe			
		X1	Y1	Z1	X2	Y2	Z2	X3	Y3	Z3	X4	Y4	Z4	X5	Y5	Z5	X6	Y6	Z6	X7	Y7	Z7	X8	Y8	Z8	X9	Y9	Z9	X10	Y10	Z10	X11	Y11	Z11	X12	Y12	Z12	X13	Y13	Z13	X14	Y14	Z14	X15	Y15	Z15	X16	Y16	Z16	X17	Y17	Z17	X18	Y18	Z18	X19	Y19	Z19	X20	Y20	Z20	X21	Y21	Z21	X22	Y22	Z22	X23	Y23	Z23	X24	Y24	Z24	X25	Y25	Z25	X26	Y26	Z26	X27	Y27	Z27	X28	Y28	Z28	X29	Y29	Z29	X30	Y30	Z30	X31	Y31	Z31	X32	Y32	Z32	X33	Y33	Z33	X34	Y34	Z34	X35	Y35	Z35	X36	Y36	Z36	X37	Y37	Z37	X38	Y38	Z38	X39	Y39	Z39	X40	Y40	Z40	X41	Y41	Z41	X42	Y42	Z42	X43	Y43	Z43	X44	Y44	Z44	X45	Y45	Z45	X46	Y46	Z46	X47	Y47	Z47	X48	Y48	Z48	X49	Y49	Z49	X50	Y50	Z50	X51	Y51	Z51	X52	Y52	Z52	X53	Y53	Z53	X54	Y54	Z54	X55	Y55	Z55	X56	Y56	Z56	X57	Y57	Z57	X58	Y58	Z58	X59	Y59	Z59	X60	Y60	Z60	X61	Y61	Z61	X62	Y62	Z62	X63	Y63	Z63	X64	Y64	Z64	

374	1.554	89.85387	202.86027	928.15591	170.68728	84.54182	987.08963	168.63261	324.13544	983.73201	153.04725	106.29117	1064.66564	151.39350	304.29041	1061.90939	28.11379	152.34566	895.18110	27.26186	251.32023	893.77791	29.16618	202.86027	966.54301	81.48488	204.36369	1030.53821	121.02460	201.80789	1128.41027	163.12011	197.79879	1211.54891	323.58419	193.43890	1208.14118	383.41995	185.17014	1300.95176	258.73705	186.17241	1356.12695	212.13131	192.23617	1290.02697	284.44538	182.81479	1393.81245	479.53803	181.21115	1552.07153	411.98476	114.86061	1484.01712	410.53146	245.40681	1483.41575	366.08061	179.75786	1507.97147	316.41793	17.18900	1350.06319	299.47950	362.57265	1335.32976	332.95545	27.81311	1036.40151	311.20610	84.84250	1037.30356	308.44985	367.38356	1023.77286	293.91687	308.19928	1021.46763	331.10124	44.45086	806.73041	373.29698	65.04759	810.23837	301.73461	43.84949	1035.75004	349.04195	364.47697	798.51176	382.96893	332.50443	805.17688	284.64584	356.05787	1020.11456	481.54258	26.91106	698.88572	406.12146	11.87695	728.65326	362.97356	42.49642	773.55514	502.28966	399.30599	710.46198	434.43570	413.73874	755.01307	381.71608	375.95301	779.66901	74.01794	56.12735	901.94645	94.81513	71.71271	521.73377	115.81277	142.32292	520.02991	145.32974	97.77184	525.39207	98.67388	352.65014	904.45213	69.75828	362.12163	524.54014	59.83576	289.40664	517.72468	105.38912	317.82111	520.53104	118.86971	56.27769	96.26843	117.56675	119.07016	93.36183	173.44353	107.14310	489.00952	60.63758	377.85733	96.16820	68.65577	315.61611	92.50990	130.69654	332.10352	487.05509	83.03841	86.54637	-0.05011	227.26565	118.01777	6.51478	226.76451	51.31643	7.46694	245.95806	85.44387	7.96808	122.32755	86.34591	6.11387	322.83248	84.89261	10.82456	26.61038	339.62057	0.75171	174.39569	339.21966	2.00455	159.91283	404.36748	2.90659	185.82161	375.00085	2.70614	65.19793	348.13990	5.51251	260.94206	391.73882	2.65603 
375	1.558	90.10444	202.86027	928.15591	170.73739	84.54182	987.29008	168.78296	324.13544	983.93247	152.94702	106.29117	1064.86610	151.29327	304.29041	1062.10984	28.41447	152.39577	894.98064	27.61265	251.42045	893.62757	29.31652	202.91039	966.39267	81.43477	204.41380	1030.48810	120.72391	201.80789	1128.46039	162.51874	197.84890	1211.79948	323.03294	193.38878	1208.89288	382.51790	185.12002	1301.95403	257.63455	186.17241	1356.67820	211.22926	192.23617	1290.37777	283.24266	182.81479	1394.41382	477.68383	181.11093	1553.42460	410.38112	114.81050	1485.06951	408.97794	245.35670	1484.51826	364.42686	179.70774	1508.87352	315.36554	17.13889	1350.56432	298.57745	362.57265	1335.98124	333.35636	28.21402	1037.05299	311.55690	85.19330	1037.90492	309.00110	367.28334	1024.52457	294.36790	308.09905	1022.16922	331.70261	44.70142	807.38189	373.94846	65.29816	810.93996	302.13552	44.25040	1036.40151	349.59320	364.77765	799.26347	383.41995	332.70488	805.82836	285.19709	355.95764	1020.86627	480.94122	27.06140	698.13401	405.87089	12.07740	728.75348	363.22413	42.69688	774.10639	502.18943	399.45634	710.21141	434.68627	413.93920	755.31375	382.11699	376.20358	780.27037	74.21840	56.17746	901.94645	94.91536	71.76282	521.73377	115.96311	142.37303	520.02991	145.48008	97.82195	525.39207	98.92445	352.65014	904.40202	69.95873	362.02140	524.49003	60.03622	289.30641	517.77479	105.53946	317.67077	520.53104	118.81959	56.37792	96.26843	117.61686	119.17039	93.36183	173.59387	107.14310	488.95941	60.73781	377.70699	96.16820	68.75600	315.46577	92.50990	130.89699	332.00329	487.05509	82.98829	86.59648	-0.05011	227.26565	118.01777	6.41455	226.76451	51.31643	7.41683	245.95806	85.44387	7.86785	122.32755	86.39603	6.11387	322.83248	84.89261	10.72433	26.66049	339.52034	0.75171	174.44580	339.06932	1.95443	159.96294	404.21714	2.85648	185.92184	374.90062	2.65603	65.24804	348.03967	5.51251	260.99217	391.58848	2.60591 
376	1.562	90.35501	202.96050	928.15591	170.83762	84.59193	987.49054	168.88318	324.18555	984.18303	152.79668	106.29117	1065.01644	151.19305	304.34052	1062.26018	28.76527	152.44589	894.83030	27.96345	251.47057	893.47723	29.46686	202.96050	966.19221	81.43477	204.46391	1030.48810	120.42323	201.85800	1128.56062	161.91738	197.84890	1211.99993	322.43157	193.38878	1209.64459	381.61586	185.12002	1302.90619	256.58216	186.17241	1357.22945	210.37733	192.23617	1290.77868	282.03993	182.81479	1395.06529	475.87973	181.01070	1554.77767	408.82760	114.76038	1486.12189	407.42441	245.30658	1485.62076	362.77310	179.65763	1509.82568	314.36327	17.13889	1351.11558	297.67540	362.57265	1336.63271	333.80738	28.66504	1037.70447	311.90769	85.59421	1038.55640	309.55235	367.13300	1025.22616	294.86903	307.99883	1022.82070	332.35409	44.95199	808.08348	374.54982	65.49861	811.64155	302.48632	44.65131	1037.05299	350.14445	365.12845	800.06529	383.87097	332.90534	806.47984	285.79845	355.90753	1021.61797	480.28974	27.26186	697.38231	405.57021	12.27786	728.85371	363.42458	42.89733	774.70775	502.03909	399.60668	709.91073	434.93684	414.13965	755.56432	382.46779	376.45414	780.92185	74.41885	56.27769	901.94645	95.06570	71.81294	521.73377	116.11345	142.47326	520.02991	145.63042	97.87206	525.34196	99.22513	352.70025	904.40202	70.15919	361.92117	524.49003	60.23667	289.20619	517.77479	105.73992	317.57054	520.53104	118.81959	56.42803	96.26843	117.66698	119.22050	93.36183	173.74421	107.14310	488.95941	60.78792	377.60676	96.16820	68.85623	315.36554	92.50990	131.09745	331.90306	487.00498	82.98829	86.64659	-0.05011	227.26565	118.06789	6.36444	226.76451	51.31643	7.36671	245.90795	85.44387	7.81774	122.32755	86.39603	6.06376	322.83248	84.94273	10.62411	26.71060	339.47023	0.80182	174.49592	338.96909	1.95443	160.06317	404.11691	2.85648	185.97196	374.75028	2.65603	65.29816	347.93945	5.51251	261.04228	391.43814	2.60591 
377	1.567	90.65569	203.01062	928.15591	170.93784	84.64205	987.69099	169.03352	324.18555	984.38349	152.69646	106.34128	1065.16678	151.14293	304.34052	1062.46064	29.11606	152.54612	894.67996	28.36436	251.57079	893.27677	29.61720	203.06073	966.04187	81.43477	204.51403	1030.43798	120.12255	201.90811	1128.66084	161.36613	197.89902	1212.20039	321.88032	193.33867	1210.39629	380.71381	185.06991	1303.85835	255.47966	186.22252	1357.73058	209.57551	192.23617	1291.12947	280.83720	182.81479	1395.66666	474.07564	180.96059	1556.08062	407.27407	114.76038	1487.17428	405.92100	245.25647	1486.72326	361.11935	179.60752	1510.67761	313.36099	17.13889	1351.61671	296.77336	362.57265	1337.28419	334.25841	29.06595	1038.40606	312.25849	85.94500	1039.20788	310.10360	367.03277	1025.97786	295.32006	307.84848	1023.52229	333.00556	45.25267	808.73496	375.20130	65.74918	812.39326	302.88723	45.05222	1037.70447	350.69570	365.47924	800.81699	384.32200	333.10579	807.18143	286.34970	355.85741	1022.36968	479.63826	27.41220	696.68071	405.26952	12.42820	729.00405	363.67515	43.14790	775.30912	501.93886	399.85724	709.71028	435.23752	414.39022	755.91511	382.86870	376.75483	781.57333	74.66942	56.32780	901.94645	95.21604	71.91317	521.68366	116.26379	142.52337	520.02991	145.78077	97.92218	525.34196	99.57593	352.75036	904.40202	70.40975	361.87106	524.49003	60.43713	289.15607	517.77479	105.99048	317.52043	520.53104	118.81959	56.57837	96.21831	117.76720	119.37084	93.31172	173.84444	107.14310	488.90930	60.88815	377.50653	96.16820	68.95646	315.26531	92.50990	131.29790	331.85295	487.00498	82.98829	86.69671	-0.05011	227.26565	118.11800	6.31433	226.76451	51.41666	7.36671	245.90795	85.54409	7.76762	122.32755	86.49625	6.06376	322.83248	85.04296	10.57399	26.76072	339.37000	0.80182	174.59614	338.96909	1.90432	160.11328	404.11691	2.85648	186.02207	374.75028	2.60591	65.39838	347.88933	5.51251	261.09240	391.43814	2.55580 
378	1.571	90.90626	203.06073	928.15591	171.03807	84.69216	987.89145	169.18386	324.23567	984.63406	152.59623	106.39139	1065.31712	151.09282	304.39064	1062.61098	29.46686	152.64634	894.47950	28.71515	251.62091	893.12643	29.81765	203.11084	965.89153	81.43477	204.56414	1030.38787	119.82187	201.95823	1128.71096	160.81488	197.94913	1212.40084	321.37918	193.38878	1211.14800	379.86188	185.06991	1304.81051	254.42728	186.22252	1358.23172	208.72358	192.28628	1291.48027	279.63447	182.86491	1396.26802	472.32166	180.86036	1557.38358	405.77066	114.71027	1488.22667	404.41759	245.25647	1487.77565	359.51571	179.55740	1511.57966	312.40883	17.13889	1352.16796	295.92142	362.57265	1337.93567	334.75954	29.51697	1039.10765	312.60929	86.34591	1039.85936	310.65485	366.88243	1026.72957	295.82120	307.74826	1024.17377	333.65704	45.50324	809.43655	375.85278	65.99975	813.09485	303.33825	45.50324	1038.35595	351.29707	365.83004	801.56870	384.82313	333.35636	807.88302	286.90096	355.80730	1023.12138	479.03690	27.61265	696.02924	405.06907	12.67877	729.20451	363.92572	43.34835	775.91048	501.78852	400.15793	709.50982	435.48809	414.69090	756.26591	383.26961	377.10562	782.27492	74.86987	56.42803	901.94645	95.36638	72.01339	521.68366	116.46425	142.62360	519.97979	145.93111	98.02241	525.29185	99.87661	352.85059	904.35190	70.61021	361.82094	524.49003	60.63758	289.10596	517.77479	106.19094	317.42020	520.53104	118.76948	56.67860	96.21831	117.81732	119.47107	93.31172	174.04489	107.14310	488.90930	60.98838	377.45642	96.16820	69.00657	315.21520	92.50990	131.49836	331.80283	487.00498	82.98829	86.74682	-0.05011	227.26565	118.21823	6.21410	226.76451	51.46677	7.31660	245.90795	85.64432	7.71751	122.32755	86.54637	6.06376	322.78237	85.14318	10.47376	26.81083	339.31989	0.80182	174.64626	338.91898	1.85421	160.16340	404.06680	2.85648	186.07218	374.70017	2.60591	65.44850	347.83922	5.51251	261.14251	391.38803	2.50569 
379	1.575	91.20694	203.16096	928.15591	171.08819	84.74227	988.09190	169.33421	324.33589	984.83451	152.49600	106.44151	1065.46746	151.04270	304.44075	1062.76132	29.81765	152.74657	894.32916	29.11606	251.72114	892.97609	29.96800	203.21107	965.74119	81.43477	204.66437	1030.33776	119.52118	202.00834	1128.81118	160.26363	197.99924	1212.60130	320.82793	193.38878	1211.89971	379.00994	185.06991	1305.71256	253.42500	186.27264	1358.73286	207.92176	192.33640	1291.83106	278.48185	182.86491	1396.81927	470.56768	180.81024	1558.63642	404.26725	114.66015	1489.22894	402.91418	245.20635	1488.82803	357.96219	179.55740	1512.43159	311.40656	17.18900	1352.66910	295.06949	362.57265	1338.58715	335.26068	29.96800	1039.80925	313.01020	86.79694	1040.51084	311.25622	366.73209	1027.43116	296.27222	307.64803	1024.87536	334.30852	45.75381	810.13814	376.55437	66.25032	813.79644	303.78927	45.90415	1039.00743	351.84832	366.13072	802.37052	385.32427	333.55681	808.53450	287.50232	355.70707	1023.87309	478.43553	27.86322	695.42787	404.86862	12.87922	729.40496	364.22640	43.59892	776.51184	501.58806	400.40850	709.20914	435.68854	414.94147	756.56659	383.67052	377.40631	782.92640	75.12044	56.47814	901.94645	95.51672	72.06351	521.68366	116.61459	142.67372	519.97979	146.13156	98.07252	525.29185	100.17729	352.90070	904.35190	70.86078	361.77083	524.43991	60.83804	289.05584	517.82490	106.44151	317.37009	520.53104	118.76948	56.77883	96.21831	117.86743	119.57130	93.31172	174.19524	107.14310	488.85918	61.03849	377.40631	96.16820	69.10680	315.16508	92.50990	131.69881	331.75272	486.95486	82.93818	86.74682	-0.10023	227.21553	118.26834	6.11387	226.71440	51.56700	7.26649	245.90795	85.69443	7.61728	122.27744	86.59648	6.01364	322.78237	85.19330	10.37354	26.86095	339.31989	0.80182	174.69637	338.81875	1.85421	160.21351	403.96657	2.80637	186.12230	374.59994	2.55580	65.49861	347.78911	5.51251	261.19263	391.23769	2.45557 
